<svg width="114" height="26" viewBox="0 0 114 26" fill="none" xmlns="http://www.w3.org/2000/svg">
<path d="M11.928 15.808H5.256L4.152 19H0.624L6.648 2.224H10.56L16.584 19H13.032L11.928 15.808ZM11.016 13.12L8.592 6.112L6.168 13.12H11.016ZM21.9557 7.648C22.3877 7.008 22.9797 6.488 23.7317 6.088C24.4997 5.688 25.3717 5.488 26.3477 5.488C27.4837 5.488 28.5077 5.768 29.4197 6.328C30.3477 6.888 31.0757 7.688 31.6037 8.728C32.1477 9.752 32.4197 10.944 32.4197 12.304C32.4197 13.664 32.1477 14.872 31.6037 15.928C31.0757 16.968 30.3477 17.776 29.4197 18.352C28.5077 18.928 27.4837 19.216 26.3477 19.216C25.3557 19.216 24.4837 19.024 23.7317 18.64C22.9957 18.24 22.4037 17.728 21.9557 17.104V19H18.5957V1.24H21.9557V7.648ZM28.9877 12.304C28.9877 11.504 28.8197 10.816 28.4837 10.24C28.1637 9.648 27.7317 9.2 27.1877 8.896C26.6597 8.592 26.0837 8.44 25.4597 8.44C24.8517 8.44 24.2757 8.6 23.7317 8.92C23.2037 9.224 22.7717 9.672 22.4357 10.264C22.1157 10.856 21.9557 11.552 21.9557 12.352C21.9557 13.152 22.1157 13.848 22.4357 14.44C22.7717 15.032 23.2037 15.488 23.7317 15.808C24.2757 16.112 24.8517 16.264 25.4597 16.264C26.0837 16.264 26.6597 16.104 27.1877 15.784C27.7317 15.464 28.1637 15.008 28.4837 14.416C28.8197 13.824 28.9877 13.12 28.9877 12.304ZM42.1093 5.512C43.1173 5.512 44.0133 5.736 44.7973 6.184C45.5813 6.616 46.1893 7.264 46.6213 8.128C47.0693 8.976 47.2933 10 47.2933 11.2V19H43.9333V11.656C43.9333 10.6 43.6693 9.792 43.1413 9.232C42.6133 8.656 41.8933 8.368 40.9813 8.368C40.0533 8.368 39.3173 8.656 38.7733 9.232C38.2453 9.792 37.9813 10.6 37.9813 11.656V19H34.6213V1.24H37.9813V7.36C38.4133 6.784 38.9893 6.336 39.7093 6.016C40.4293 5.68 41.2293 5.512 42.1093 5.512ZM51.9525 4.12C51.3605 4.12 50.8645 3.936 50.4645 3.568C50.0805 3.184 49.8885 2.712 49.8885 2.152C49.8885 1.592 50.0805 1.128 50.4645 0.759999C50.8645 0.375999 51.3605 0.183999 51.9525 0.183999C52.5445 0.183999 53.0325 0.375999 53.4165 0.759999C53.8165 1.128 54.0165 1.592 54.0165 2.152C54.0165 2.712 53.8165 3.184 53.4165 3.568C53.0325 3.936 52.5445 4.12 51.9525 4.12ZM53.6085 5.704V19H50.2485V5.704H53.6085ZM58.3922 4.12C57.7842 4.12 57.2802 3.936 56.8802 3.568C56.4962 3.184 56.3042 2.712 56.3042 2.152C56.3042 1.592 56.4962 1.128 56.8802 0.759999C57.2802 0.375999 57.7842 0.183999 58.3922 0.183999C58.9842 0.183999 59.4722 0.375999 59.8562 0.759999C60.2402 1.128 60.4322 1.592 60.4322 2.152C60.4322 2.712 60.2402 3.184 59.8562 3.568C59.4722 3.936 58.9842 4.12 58.3922 4.12ZM60.0482 21.184C60.0482 22.656 59.6802 23.712 58.9442 24.352C58.2242 25.008 57.1842 25.336 55.8242 25.336H54.3362V22.48H55.2962C55.8082 22.48 56.1682 22.376 56.3762 22.168C56.5842 21.976 56.6882 21.656 56.6882 21.208V5.704H60.0482V21.184ZM64.8319 4.12C64.2399 4.12 63.7439 3.936 63.3439 3.568C62.9599 3.184 62.7679 2.712 62.7679 2.152C62.7679 1.592 62.9599 1.128 63.3439 0.759999C63.7439 0.375999 64.2399 0.183999 64.8319 0.183999C65.4239 0.183999 65.9119 0.375999 66.2959 0.759999C66.6959 1.128 66.8959 1.592 66.8959 2.152C66.8959 2.712 66.6959 3.184 66.2959 3.568C65.9119 3.936 65.4239 4.12 64.8319 4.12ZM66.4879 5.704V19H63.1279V5.704H66.4879ZM73.4796 8.464V14.896C73.4796 15.344 73.5836 15.672 73.7916 15.88C74.0156 16.072 74.3836 16.168 74.8956 16.168H76.4556V19H74.3436C71.5116 19 70.0956 17.624 70.0956 14.872V8.464H68.5116V5.704H70.0956V2.416H73.4796V5.704H76.4556V8.464H73.4796ZM86.1202 5.512C87.1283 5.512 88.0243 5.736 88.8083 6.184C89.5923 6.616 90.2003 7.264 90.6322 8.128C91.0802 8.976 91.3042 10 91.3042 11.2V19H87.9443V11.656C87.9443 10.6 87.6803 9.792 87.1523 9.232C86.6243 8.656 85.9043 8.368 84.9923 8.368C84.0643 8.368 83.3283 8.656 82.7843 9.232C82.2562 9.792 81.9922 10.6 81.9922 11.656V19H78.6322V1.24H81.9922V7.36C82.4243 6.784 83.0003 6.336 83.7203 6.016C84.4402 5.68 85.2402 5.512 86.1202 5.512ZM109.194 19L103.098 11.536V19H99.7382V2.248H103.098V9.76L109.194 2.248H113.25L106.338 10.552L113.442 19H109.194Z" fill="url(#paint0_linear_24_720)"/>
<defs>
<linearGradient id="paint0_linear_24_720" x1="51.2704" y1="1.00069" x2="50.6615" y2="35.1781" gradientUnits="userSpaceOnUse">
<stop offset="0.125" stop-color="#FFA01B"/>
<stop offset="1" stop-color="#190801" stop-opacity="0.6"/>
</linearGradient>
</defs>
</svg>
